<?xml version="1.0" encoding="utf-8"?>
<svg version="1.1" id="Layer_1" xmlns="http://www.w3.org/2000/svg" xmlns:xlink="http://www.w3.org/1999/xlink" x="0px" y="0px"
	 viewBox="0 0 516.6 512" style="enable-background:new 0 0 516.6 512;" xml:space="preserve">
<style type="text/css">
	.st0{fill:#FF003C;stroke:#FF003C;stroke-miterlimit:10;}
	.st1{fill:none;stroke:#231F20;stroke-width:1.4164;stroke-miterlimit:10;}
	.st2{clip-path:url(#SVGID_2_);}
	.st3{fill:#FF003C;}
	.st4{clip-path:url(#SVGID_4_);}
</style>
<g id="surface1">
	<path class="st0" d="M144.8,51.9l-6.6,112.3c0,0-3.6,13.9-11.5,24.6c-7.6,10.2-49.2,72.1-44.3,141c4.9,68.9,51.7,126.3,117.3,138.6
		l-0.8,18.9c0,0-187.8,12.3-197.6-200.9C8.7,134.7,144.8,51.9,144.8,51.9"/>
	<path class="st1" d="M144.8,51.9l-6.6,112.3c0,0-3.6,13.9-11.5,24.6c-7.6,10.2-49.2,72.1-44.3,141c4.9,68.9,51.7,126.3,117.3,138.6
		l-0.8,18.9c0,0-187.8,12.3-197.6-200.9C8.7,134.7,144.8,51.9,144.8,51.9z"/>
	<path class="st0" d="M170,262.4l42.6-225.2c0,0-4.4-23,73.3-31.7c77.6-8.8,67.2-0.3,59.9,16.9s-66,157-66,157s-10.3,17.2,12.7,8.2
		s64.4-25,64.4-25s17.2-8.6,6.1,11.5s-66.4,130.4-66.4,130.4s-6.1,15.6,10.2,8.2c16.4-7.4,49.2-19.3,49.2-19.3s19.3-7,6.2,12.7
		C349,325.8,233.4,507,233.4,507s-2.7,4.3-6.3,2.7c-4.7-2-1.4-6.7,0.3-10.9c1.4-3.6,54.8-128.3,54.8-128.3s8.6-20.5-15.2-10.2
		c-23.8,10.2-50,18.4-50,18.4s-21.3,11.5-9-18s38.9-93.9,38.9-93.9s7-15.2-9-9.8c-16,5.3-52.5,19.7-52.5,19.7S165.2,286.7,170,262.4
		"/>
	<g>
		<g>
			<g>
				<defs>
					<rect id="SVGID_1_" x="145" width="244.5" height="512"/>
				</defs>
				<clipPath id="SVGID_2_">
					<use xlink:href="#SVGID_1_"  style="overflow:visible;"/>
				</clipPath>
				<g class="st2">
					<path class="st1" d="M170,262.4l42.6-225.2c0,0-4.4-23,73.3-31.7c77.6-8.8,67.2-0.3,59.9,16.9c-7.4,17.2-66,157-66,157
						s-10.3,17.2,12.7,8.2s64.4-25,64.4-25s17.2-8.6,6.1,11.5s-66.4,130.4-66.4,130.4s-6.1,15.6,10.2,8.2
						c16.4-7.4,49.2-19.3,49.2-19.3s19.3-7,6.2,12.7C349,325.8,233.4,507,233.4,507s-2.7,4.3-6.3,2.7c-4.7-2-1.4-6.7,0.3-10.9
						c1.4-3.6,54.8-128.3,54.8-128.3s8.6-20.5-15.2-10.2c-23.8,10.2-50,18.4-50,18.4s-21.3,11.5-9-18s38.9-93.9,38.9-93.9
						s7-15.2-9-9.8c-16,5.3-52.5,19.7-52.5,19.7S165.2,286.7,170,262.4z"/>
				</g>
			</g>
		</g>
	</g>
	<path class="st3" d="M364.2,108.5l36.9-76.3c0,0,4.5-15.6,18.9-6.1c14.3,9.4,99.6,48,93.9,175.5C508.1,329,405,436.7,295.7,472.8
		c-8.2,2.2-4.2-3.1-1-7.8c3.3-4.6,6.3-9.9,6.3-9.9s-1-1.2,13.1-9.6s105.4-58.2,118.5-168.9c4.9-90.2-21-122.5-63.1-155.8
		C359.4,113.4,364.2,108.5,364.2,108.5"/>
	<g>
		<g>
			<g>
				<defs>
					<rect id="SVGID_3_" x="268.6" width="247.5" height="497.2"/>
				</defs>
				<clipPath id="SVGID_4_">
					<use xlink:href="#SVGID_3_"  style="overflow:visible;"/>
				</clipPath>
				<g class="st4">
					<path class="st1" d="M364.2,108.5l36.9-76.3c0,0,4.5-15.6,18.9-6.1c14.3,9.4,99.6,48,93.9,175.5
						C508.1,329,405,436.7,295.7,472.8c-8.2,2.2-4.2-3.1-1-7.8c3.3-4.6,6.3-9.9,6.3-9.9s-1-1.2,13.1-9.6s105.4-58.2,118.5-168.9
						c4.9-90.2-21-122.5-63.1-155.8C359.4,113.4,364.2,108.5,364.2,108.5z"/>
				</g>
			</g>
		</g>
	</g>
</g>
</svg>